# xmcd CD database file
#
# Track frame offsets:
#	150
#	23907
#	36447
#	62995
#	77840
#	98037
#	117597
#	133870
#	147080
#	161462
#	173547
#	190880
#	207070
#	221090
#	235372
#	249055
#	263132
#
# Disc length: 3661 seconds
#
# Revision: 2
# Processed by: cddbd v1.5.1PL2 Copyright (c) Steve Scherf et al.
# Submitted via: CDex 1.51
#
DISCID=f00e4b11
DTITLE=Willie Nelson - I Love Country
DYEAR=1988
DGENRE=Country
TTITLE0=Me and Bobby McGee
TTITLE1=Songwriter
TTITLE2=Till I Gain Control Again
TTITLE3=Would You Lay With Me (In a field of stone)
TTITLE4=Angel Flying Too Close to the Ground
TTITLE5=Please Come to Boston
TTITLE6=Pretend I Never Happened
TTITLE7=Good Time Charlie's Got the Blues
TTITLE8=Heart of Gold
TTITLE9=Railroad Lady
TTITLE10=Wibd Beneath my Wings
TTITLE11=When I Dream
TTITLE12=We Had It All
TTITLE13=That's the Way Love Goes
TTITLE14=She's Not for You
TTITLE15=Old Five and Dimers Like Me
TTITLE16=On the Road Again
EXTD=YEAR: 1988
EXTT0=
EXTT1=
EXTT2=
EXTT3=
EXTT4=
EXTT5=
EXTT6=
EXTT7=
EXTT8=
EXTT9=
EXTT10=
EXTT11=
EXTT12=
EXTT13=
EXTT14=
EXTT15=
EXTT16=
PLAYORDER=
